<?xml version="1.0" encoding="utf-8"?>
<!-- Generator: Adobe Illustrator 21.1.0, SVG Export Plug-In . SVG Version: 6.00 Build 0)  -->
<svg version="1.1" id="Calque_1" xmlns="http://www.w3.org/2000/svg" xmlns:xlink="http://www.w3.org/1999/xlink" x="0px" y="0px"
	 viewBox="0 0 771 122.2" style="enable-background:new 0 0 771 122.2;" xml:space="preserve">
<style type="text/css">
	.st0{fill:#FD2D01;}
	.st1{fill:#FFD7D7;}
</style>
<path class="st0" d="M189.9,87c-10.4,0-19.2-3.5-26.2-10.6c-7-7-10.6-15.8-10.6-26.4c0-10.4,3.5-19.1,10.6-26.2
	c7-7,15.8-10.6,26.2-10.6c10.5,0,19.5,3.3,27,9.9l-9.8,10.7c-5-3.9-10.8-5.9-17.3-5.9c-6.6,0-12,2.1-16,6.3c-4,4.1-6,9.3-6,15.7
	c0,6.9,2,12.3,6.1,16.3c4.1,4,9.4,6,16,6c5.3,0,9.4-1,12.2-3.1V56.5l-9.8,0.1V42.8h24.5v34.4C209.4,83.7,200.4,87,189.9,87z
	 M243.3,37.8v5.5c3.5-3.6,7.8-5.4,12.9-5.4c1.6,0,3.1,0.1,4.5,0.4l-2.2,13.6c-1.6-1.4-3.9-2.2-6.8-2.3c-3.4,0.2-6.2,2.7-8.4,7.3V87
	h-13.7V39.3L243.3,37.8z M292,87.5c-7.1,0-13.1-2.4-17.9-7.2c-4.7-4.8-7.1-10.7-7.1-17.8c0-7.1,2.4-13.1,7.1-17.9
	c4.8-4.8,10.8-7.2,17.9-7.2s13.1,2.4,17.9,7.2s7.2,10.8,7.2,17.9s-2.4,13.1-7.2,17.8C305.1,85.1,299.1,87.5,292,87.5z M292,75.6
	c3.7,0,6.7-1.3,9.1-3.8c2.3-2.5,3.5-5.6,3.5-9.3c0-3.7-1.2-6.9-3.5-9.3c-2.3-2.5-5.4-3.8-9.1-3.8c-3.7,0-6.7,1.3-9.1,3.8
	c-2.3,2.5-3.5,5.6-3.5,9.3c0,3.7,1.2,6.9,3.5,9.3C285.2,74.4,288.2,75.6,292,75.6z M356,69.6V37.8h13.7V87H356v-4.5
	c-3.3,3-7.2,4.5-11.8,4.5c-6.2,0-11-1.9-14.2-5.7c-3.3-3.8-5-8.1-5-13V37.8h13.8v27c0,3.3,0.8,5.8,2.4,7.6c1.6,1.8,4.1,2.8,7.4,2.9
	C351.6,75.2,354,73.2,356,69.6z M395.2,107.7l-13.7-0.1V39.3l13.7-1.5v4c3.7-2.6,7.3-4,10.9-4c7.5,0,13.5,2.5,17.9,7.4
	c4.5,4.9,6.7,10.6,6.7,17.2c0,6.6-2.2,12.3-6.7,17.2c-4.4,4.9-10.4,7.4-17.9,7.4c-4.9-0.3-8.6-1.7-10.9-4V107.7z M395.2,58v8
	c0.7,5.5,4.1,8.7,10.4,9.7c7.9-0.6,12.3-4.7,13.3-12.2c-0.3-9.2-4.8-14-13.3-14.3C399.4,50.1,395.9,53.1,395.2,58z M462.7,87.5
	c-7.1,0-13.1-2.4-17.8-7.2c-4.8-4.8-7.2-10.7-7.2-17.8c0-7.1,2.4-13.1,7.2-17.9c4.7-4.8,10.7-7.2,17.8-7.2c7.1,0,13.1,2.4,17.9,7.2
	c4.8,4.8,7.2,10.8,7.2,17.9c0,7.1-2.4,13.1-7.2,17.8C475.8,85.1,469.8,87.5,462.7,87.5z M462.7,75.6c3.7,0,6.8-1.3,9.1-3.8
	c2.3-2.5,3.5-5.6,3.5-9.3c0-3.7-1.2-6.9-3.5-9.3c-2.3-2.5-5.3-3.8-9.1-3.8c-3.7,0-6.7,1.3-9.1,3.8c-2.3,2.5-3.5,5.6-3.5,9.3
	c0,3.7,1.2,6.9,3.5,9.3C455.9,74.4,458.9,75.6,462.7,75.6z M510.7,55.6V87h-13.8V39.3l13.8-1.5v4.4c3.1-2.9,7-4.3,11.8-4.3
	c6.2,0,10.9,1.9,14.2,5.6c3.6-3.7,9-5.6,16.2-5.6c6.2,0,11,1.9,14.3,5.6c3.3,3.8,4.9,8.1,4.9,13.1V87h-13.7V60
	c0-3.3-0.7-5.8-2.2-7.6c-1.5-1.8-3.9-2.7-7.2-2.8c-2.7,0.2-5.1,2-7,5.4c-0.2,1-0.3,2-0.3,3.1v29h-13.7V60c0-3.3-0.7-5.8-2.2-7.6
	c-1.5-1.8-3.9-2.7-7.2-2.8C515.5,49.7,512.9,51.7,510.7,55.6L510.7,55.6z M590.6,52.1l-5.4-8.3c6.2-3.9,13.4-5.9,21.6-5.9
	c5.9,0,10.5,1.6,13.9,4.9c3.5,3.3,5.2,8.2,5.2,14.7V87h-13.7v-3.9c-4,2.6-7.6,3.9-10.9,3.9c-6.5,0-11.4-1.4-14.7-4.2
	c-3.3-2.8-4.9-6.6-4.9-11.5c0-4.6,1.6-8.7,4.7-12.3c3.1-3.6,8.1-5.4,15-5.4c3.2,0,6.8,1,10.9,2.9v-1.5c-0.1-3.6-2.7-5.6-7.9-5.9
	C598.4,49.2,593.8,50.2,590.6,52.1L590.6,52.1z M612.2,72.3v-5.5c-1.3-2.5-4.4-3.8-9.3-3.8c-5.9,0.7-9,3-9.3,6.9
	c0.3,3.9,3.5,6,9.3,6.3C607.8,76.1,610.9,74.9,612.2,72.3z M652.1,55.8V87h-13.8V39.3l13.8-1.5v4.5c3.3-2.9,7.2-4.4,11.8-4.4
	c6.2,0,11,1.9,14.2,5.6c3.3,3.8,4.9,8.1,4.9,13.1V87h-13.7V60c0-3.3-0.8-5.8-2.4-7.6c-1.7-1.8-4.2-2.7-7.5-2.8
	C656.5,49.7,654.1,51.8,652.1,55.8z M708.3,87h-13.7V37.8h13.7V87z M694.1,26.1c0,2,0.6,3.6,1.9,4.9c1.3,1.3,3.2,1.9,5.5,1.9
	c2.3,0,4.1-0.6,5.4-1.9c1.3-1.3,1.9-2.9,1.9-4.9s-0.6-3.6-1.9-5c-1.3-1.3-3.2-2-5.5-2c-2.2,0-4,0.7-5.3,2
	C694.7,22.5,694.1,24.1,694.1,26.1L694.1,26.1z M726.6,52.1l-5.4-8.3c6.2-3.9,13.4-5.9,21.6-5.9c5.9,0,10.6,1.6,14,4.9
	c3.4,3.3,5.1,8.2,5.1,14.7V87h-13.7v-3.9c-4,2.6-7.6,3.9-10.8,3.9c-6.6,0-11.5-1.4-14.7-4.2c-3.3-2.8-5-6.6-5-11.5
	c0-4.6,1.6-8.7,4.7-12.3c3.1-3.6,8.1-5.4,15-5.4c3.2,0,6.8,1,10.8,2.9v-1.5c0-3.6-2.7-5.6-7.8-5.9C734.5,49.2,729.9,50.2,726.6,52.1
	L726.6,52.1z M748.3,72.3v-5.5c-1.3-2.5-4.4-3.8-9.3-3.8c-5.9,0.7-9,3-9.3,6.9c0.3,3.9,3.5,6,9.3,6.3
	C743.9,76.1,747,74.9,748.3,72.3z"/>
<path class="st1" d="M61.1,122.2c16.4,0,31.7-6.3,43.3-17.8s17.8-26.9,17.8-43.3s-6.3-31.7-17.8-43.3C92.8,6.3,77.5,0,61.1,0
	S29.4,6.3,17.8,17.8S0,44.7,0,61.1s6.3,31.7,17.8,43.3S44.7,122.2,61.1,122.2z M64.6,111.8c-1.2,0.1-2.3,0.1-3.5,0.1
	c-1.6,0-3.2-0.1-4.8-0.3c-5.3-8.2-9.2-17-11.5-26.2h25.9c0.9,2.2,2.5,4.2,4.4,5.6C72.5,98.4,69,105.2,64.6,111.8z M78.5,108.9
	c2.8-5.1,5-10.2,6.7-15.6c4.2-0.9,7.6-3.8,9.2-7.7h11.3C99.8,96.2,90,104.5,78.5,108.9z M111.8,61.1c0,4.8-0.7,9.5-1.9,14H94.1
	c-0.9-1.9-2.3-3.7-4.1-5c0.3-3.2,0.4-6.4,0.4-9.6c0-4.5-0.3-9.1-0.9-13.4h20.2C111.2,51.4,111.8,56.3,111.8,61.1z M105.7,36.7H87.8
	c-1.9-8-4.7-15.6-8.5-22.9C90.5,18,99.8,26.3,105.7,36.7z M80.2,60.5c0,2.5-0.1,5-0.3,7.5c-4.1,0.9-7.5,3.5-9.1,7.2H42.7
	c-0.6-4.4-1-8.9-1-13.3c0-2.8,0.1-5.6,0.4-8.3c3.8-0.7,6.9-3.2,8.8-6.4h28.5C79.9,51.4,80.2,56,80.2,60.5L80.2,60.5z M57.3,10.5
	c1.3-0.1,2.6-0.1,3.8-0.1c1.5,0,2.9,0,4.4,0.1c5.3,8.2,9.2,17,11.5,26.2H51.6c-0.9-2.5-2.5-4.7-4.5-6.3
	C49.7,23.4,53.1,16.8,57.3,10.5L57.3,10.5z M43.4,13.4c-2.5,4.7-4.7,9.6-6.4,14.6c-4.5,0.9-8.2,4.2-9.6,8.5H16.7
	C22.4,26.2,31.9,17.8,43.4,13.4z M10.4,61.1c0-4.8,0.7-9.6,2-14h15.9c0.9,1.6,2.2,3.1,3.7,4.2c-0.3,3.5-0.6,7-0.6,10.5
	c0,4.5,0.3,8.9,0.9,13.3H12.4C11,70.6,10.4,65.9,10.4,61.1z M34.1,85.4c1.9,7.9,4.7,15.6,8.5,22.9c-11.1-4.4-20.3-12.6-26-22.9H34.1
	z"/>
</svg>
